<svg id="Capa_1" data-name="Capa 1" xmlns="http://www.w3.org/2000/svg" viewBox="0 0 48 48"><defs><style>.cls-1{fill:#e8f5e9;}.cls-2{fill:#a4bc2c;}.cls-3{fill:#d7424f;}.cls-4{fill:#e38911;}.cls-5{fill:#f0c200;}.cls-6{fill:#4eaeac;}.cls-7{fill:#269a40;}.cls-8{fill:#009e7e;}.cls-9{fill:#388e3c;}</style></defs><title>drawable-</title><rect class="cls-1" x="0.44" y="0.44" width="47.11" height="47.11" rx="7.44" ry="7.44"/><path class="cls-2" d="M17.37,41.7V36a.82.82,0,0,0-1.64,0V46.73a.82.82,0,1,0,1.64,0Z"/><path class="cls-2" d="M19.83,47.55a.82.82,0,0,0,.82-.82V36A.82.82,0,0,0,19,36V46.73A.82.82,0,0,0,19.83,47.55Z"/><path class="cls-2" d="M23.11,35.15a.82.82,0,0,0-.82.82V46.73a.82.82,0,1,0,1.64,0V36A.82.82,0,0,0,23.11,35.15Z"/><path class="cls-2" d="M23.12,37.11a.84.84,0,0,1-.83-.84A12.55,12.55,0,0,1,34.82,23.73a.85.85,0,0,1,.84.84.84.84,0,0,1-.84.83A10.88,10.88,0,0,0,24,36.27.85.85,0,0,1,23.12,37.11Z"/><path class="cls-2" d="M26.63,28.75a.84.84,0,0,1-.83-.84,3.08,3.08,0,0,0-3.08-3.07.85.85,0,0,1-.84-.84.84.84,0,0,1,.84-.83,4.75,4.75,0,0,1,4.75,4.74A.85.85,0,0,1,26.63,28.75Z"/><path class="cls-2" d="M30.49,26.24a.84.84,0,0,1-.84-.84,5.58,5.58,0,0,0-5.57-5.57.85.85,0,0,1-.84-.84.84.84,0,0,1,.84-.83,7.25,7.25,0,0,1,7.24,7.24A.84.84,0,0,1,30.49,26.24Z"/><path class="cls-2" d="M29,22.1a.84.84,0,0,1-.83-.84,4.6,4.6,0,0,1,4.59-4.59.84.84,0,1,1,0,1.67,2.92,2.92,0,0,0-2.92,2.92A.85.85,0,0,1,29,22.1Z"/><path class="cls-2" d="M19.83,37.67a.84.84,0,0,1-.84-.83V19a.84.84,0,0,1,1.68,0V36.84A.84.84,0,0,1,19.83,37.67Z"/><path class="cls-2" d="M19.83,31.82A.85.85,0,0,1,19,31a3.74,3.74,0,0,1,3.73-3.73.84.84,0,1,1,0,1.68,2.05,2.05,0,0,0-2,2.05A.85.85,0,0,1,19.83,31.82Z"/><path class="cls-2" d="M19.83,20.22a.84.84,0,0,1-.84-.84A9.54,9.54,0,0,0,9.47,9.86.83.83,0,0,1,8.64,9a.84.84,0,0,1,.83-.84,11.21,11.21,0,0,1,11.2,11.19A.84.84,0,0,1,19.83,20.22Z"/><path class="cls-2" d="M19.82,25.4a.84.84,0,0,1-.84-.83,7.26,7.26,0,0,0-7.25-7.25.84.84,0,0,1,0-1.68,9,9,0,0,1,8.93,8.93A.84.84,0,0,1,19.82,25.4Z"/><path class="cls-2" d="M16.55,36.36a.84.84,0,0,1-.84-.84,2.41,2.41,0,0,1,2.41-2.4.84.84,0,1,1,0,1.67.73.73,0,0,0-.73.73A.84.84,0,0,1,16.55,36.36Z"/><path class="cls-2" d="M16.55,36.36a.84.84,0,0,1-.84-.84,8.37,8.37,0,0,0-8.35-8.36.83.83,0,0,1-.84-.83.84.84,0,0,1,.84-.84,10,10,0,0,1,10,10A.84.84,0,0,1,16.55,36.36Z"/><path class="cls-2" d="M12.61,28.82a.84.84,0,0,1-.83-.84,5.15,5.15,0,0,1,5.14-5.15.84.84,0,1,1,0,1.68A3.47,3.47,0,0,0,13.45,28,.85.85,0,0,1,12.61,28.82Z"/><path class="cls-2" d="M26,19.83a.84.84,0,0,1-.84-.84,6.54,6.54,0,0,1,6.54-6.53.84.84,0,0,1,0,1.67A4.87,4.87,0,0,0,26.81,19,.84.84,0,0,1,26,19.83Z"/><path class="cls-2" d="M26.63,17a.84.84,0,0,1-.83-.84,4.53,4.53,0,0,0-4.52-4.52.84.84,0,1,1,0-1.67,6.2,6.2,0,0,1,6.19,6.19A.85.85,0,0,1,26.63,17Z"/><path class="cls-3" d="M12.58,16.48a.85.85,0,1,1-.85-.85A.85.85,0,0,1,12.58,16.48Z"/><path class="cls-4" d="M10.32,9a.85.85,0,1,1-.85-.85A.85.85,0,0,1,10.32,9Z"/><path class="cls-5" d="M32.53,13.29a.85.85,0,1,1-.85-.85A.85.85,0,0,1,32.53,13.29Z"/><path class="cls-4" d="M33.58,17.51a.85.85,0,1,1-.85-.85A.85.85,0,0,1,33.58,17.51Z"/><path class="cls-6" d="M24.93,19a.85.85,0,1,1-.85-.85A.85.85,0,0,1,24.93,19Z"/><path class="cls-3" d="M23.57,24a.85.85,0,1,1-.85-.85A.85.85,0,0,1,23.57,24Z"/><path class="cls-5" d="M17.77,23.67a.85.85,0,1,1-.85-.85A.85.85,0,0,1,17.77,23.67Z"/><path class="cls-7" d="M23.57,28.09a.85.85,0,1,1-.85-.85A.85.85,0,0,1,23.57,28.09Z"/><path class="cls-8" d="M19,34a.85.85,0,0,1-1.7,0A.85.85,0,0,1,19,34Z"/><path class="cls-6" d="M8.21,26.33a.86.86,0,1,1-.85-.85A.85.85,0,0,1,8.21,26.33Z"/><path class="cls-8" d="M35.67,24.52a.85.85,0,1,1-.85-.85A.85.85,0,0,1,35.67,24.52Z"/><path class="cls-5" d="M29.68,21a.85.85,0,1,1-.85-.85A.86.86,0,0,1,29.68,21Z"/><path class="cls-8" d="M22.12,10.79a.85.85,0,1,1-.84-.85A.85.85,0,0,1,22.12,10.79Z"/><path class="cls-9" d="M.7,6.27A.7.7,0,0,0,0,7V41a.7.7,0,0,0,.7.71A.71.71,0,0,0,1.41,41V7A.71.71,0,0,0,.7,6.27Z"/><path class="cls-9" d="M47.3,6.27a.71.71,0,0,0-.71.71V41a.71.71,0,0,0,.71.71A.7.7,0,0,0,48,41V7A.7.7,0,0,0,47.3,6.27Z"/><path class="cls-9" d="M41.73,47.3a.71.71,0,0,0-.71-.71H7a.71.71,0,0,0-.71.71A.7.7,0,0,0,7,48H41A.7.7,0,0,0,41.73,47.3Z"/><path class="cls-9" d="M41.73.7A.7.7,0,0,0,41,0H7a.7.7,0,0,0-.71.7A.71.71,0,0,0,7,1.41H41A.71.71,0,0,0,41.73.7Z"/><path class="cls-9" d="M6.78,0a.72.72,0,0,1,0,1.44A5.35,5.35,0,0,0,1.44,6.78.72.72,0,1,1,0,6.78,6.79,6.79,0,0,1,6.78,0Z"/><path class="cls-9" d="M48,6.78a.72.72,0,1,1-1.44,0,5.35,5.35,0,0,0-5.34-5.34.72.72,0,1,1,0-1.44A6.79,6.79,0,0,1,48,6.78Z"/><path class="cls-9" d="M0,41.22a.72.72,0,0,1,1.44,0,5.35,5.35,0,0,0,5.34,5.34.72.72,0,1,1,0,1.44A6.79,6.79,0,0,1,0,41.22Z"/><path class="cls-9" d="M41.22,48a.72.72,0,0,1,0-1.44,5.35,5.35,0,0,0,5.34-5.34.72.72,0,0,1,1.44,0A6.79,6.79,0,0,1,41.22,48Z"/><path class="cls-2" d="M1.46,41a.73.73,0,0,1-.73.73.73.73,0,1,1,0-1.46A.73.73,0,0,1,1.46,41Z"/><path class="cls-3" d="M41.73,47.27a.73.73,0,1,1-.73-.73A.73.73,0,0,1,41.73,47.27Z"/><path class="cls-5" d="M1.46,7a.73.73,0,1,1-.73-.73A.73.73,0,0,1,1.46,7Z"/><path class="cls-4" d="M7.73,47.27A.73.73,0,1,1,7,46.54.73.73,0,0,1,7.73,47.27Z"/><path class="cls-4" d="M7.73.73a.73.73,0,0,1-1.46,0,.73.73,0,0,1,1.46,0Z"/><path class="cls-3" d="M41.73.73a.73.73,0,1,1-1.46,0,.73.73,0,1,1,1.46,0Z"/><path class="cls-5" d="M48,41a.73.73,0,1,1-.73-.73A.73.73,0,0,1,48,41Z"/><path class="cls-2" d="M48,7a.73.73,0,1,1-.73-.73A.73.73,0,0,1,48,7Z"/><path class="cls-9" d="M26.8,34.62h.44v3H26.8Z"/><path class="cls-9" d="M27.57,34.62H28v3h-.44Z"/><path class="cls-9" d="M30.11,36.59V37a.81.81,0,0,1-.07.33.53.53,0,0,1-.18.22.48.48,0,0,1-.33.1.52.52,0,0,1-.35-.1.6.6,0,0,1-.17-.22.81.81,0,0,1-.07-.33V35.24a.88.88,0,0,1,.07-.33.6.6,0,0,1,.17-.22.58.58,0,0,1,.35-.1.54.54,0,0,1,.33.1.53.53,0,0,1,.18.22.88.88,0,0,1,.07.33v.41H29.7v-.41a.29.29,0,0,0-.06-.19.16.16,0,0,0-.11,0,.14.14,0,0,0-.13.11.36.36,0,0,0,0,.11V37a.26.26,0,0,0,.07.19.11.11,0,0,0,.08,0,.14.14,0,0,0,.15-.11s0-.06,0-.11v-.41Z"/><path class="cls-9" d="M31.52,37a.67.67,0,0,1-.07.33.6.6,0,0,1-.17.22.53.53,0,0,1-.34.1.54.54,0,0,1-.35-.1.6.6,0,0,1-.17-.22.81.81,0,0,1-.07-.33V35.24a.88.88,0,0,1,.07-.33.6.6,0,0,1,.17-.22.61.61,0,0,1,.35-.1.51.51,0,0,1,.51.32.72.72,0,0,1,.07.33Zm-.44-1.76a.29.29,0,0,0,0-.19.14.14,0,0,0-.09,0,.12.12,0,0,0-.13.11.2.2,0,0,0,0,.11V37a.25.25,0,0,0,.06.19.12.12,0,0,0,.09,0,.14.14,0,0,0,.13-.11.31.31,0,0,0,0-.11Z"/><path class="cls-9" d="M32.29,36.06l0-.14h0v1.7h-.41v-3h.39l.43,1.56,0,.14h0v-1.7h.41v3h-.39Z"/><path class="cls-9" d="M34.14,35.7v-.46a.29.29,0,0,0-.06-.19A.12.12,0,0,0,34,35a.14.14,0,0,0-.13.11.37.37,0,0,0,0,.11V37a.27.27,0,0,0,.06.19.11.11,0,0,0,.08,0,.12.12,0,0,0,.13-.11.18.18,0,0,0,0-.11V36.5H34v-.37h.62v1.49h-.26l0-.14a.46.46,0,0,1-.35.17.41.41,0,0,1-.31-.1.69.69,0,0,1-.16-.22.83.83,0,0,1,0-.33V35.24a.72.72,0,0,1,.07-.33.6.6,0,0,1,.17-.22.57.57,0,0,1,.34-.1.55.55,0,0,1,.34.1.63.63,0,0,1,.18.22.88.88,0,0,1,.07.33v.46Z"/><path class="cls-9" d="M35.69,37.62l-.23-1.27h-.12v1.27H34.9v-3h.44c.53,0,.75.3.75.87a.83.83,0,0,1-.24.68l.28,1.45ZM35.34,36a.3.3,0,0,0,.21-.07.66.66,0,0,0,0-.76.29.29,0,0,0-.21-.06Z"/><path class="cls-9" d="M36.38,34.62h1v.45h-.56v.79h.4v.48h-.4v.83h.56v.45h-1Z"/><path class="cls-9" d="M38.36,35.42a1.43,1.43,0,0,0,0-.29c0-.08-.08-.14-.15-.14s-.15.12-.15.3a.72.72,0,0,0,.11.32c.07.12.15.23.24.36s.2.31.28.46a1,1,0,0,1,.13.47.86.86,0,0,1-.13.52.53.53,0,0,1-.48.23.54.54,0,0,1-.53-.27,1.26,1.26,0,0,1-.11-.6l.43,0a1,1,0,0,0,0,.35c0,.09.07.16.17.16s.18-.14.18-.33a.7.7,0,0,0-.12-.33,1.74,1.74,0,0,0-.11-.18c-.09-.12-.18-.26-.28-.41a1.62,1.62,0,0,1-.21-.47.67.67,0,0,1,0-.24.85.85,0,0,1,.13-.47.52.52,0,0,1,.44-.23.51.51,0,0,1,.51.26,1.15,1.15,0,0,1,.11.53Z"/><path class="cls-9" d="M40.17,37a.81.81,0,0,1-.07.33.53.53,0,0,1-.18.22.48.48,0,0,1-.33.1.52.52,0,0,1-.35-.1.6.6,0,0,1-.17-.22A.81.81,0,0,1,39,37V35.24a.88.88,0,0,1,.07-.33.6.6,0,0,1,.17-.22.58.58,0,0,1,.35-.1.54.54,0,0,1,.33.1.53.53,0,0,1,.18.22.88.88,0,0,1,.07.33Zm-.44-1.76a.29.29,0,0,0,0-.19.14.14,0,0,0-.09,0,.12.12,0,0,0-.13.11.2.2,0,0,0,0,.11V37a.25.25,0,0,0,.06.19.12.12,0,0,0,.09,0,.14.14,0,0,0,.13-.11.31.31,0,0,0,0-.11Z"/><path class="cls-9" d="M27.53,40.89,27.25,39v-.13h0v2H26.8v-3h.54l.26,1.37,0,.16h0l0-.16.26-1.37h.54v3H28v-2h0L28,39l-.28,1.88Z"/><path class="cls-9" d="M30,37.89v2.38a.81.81,0,0,1-.07.33.63.63,0,0,1-.18.22.49.49,0,0,1-.34.1.51.51,0,0,1-.51-.32.8.8,0,0,1-.08-.33V37.89h.45v2.38a.25.25,0,0,0,.06.19.12.12,0,0,0,.21-.08.27.27,0,0,0,0-.11V37.89Z"/><path class="cls-9" d="M30.74,39.33l0-.14h0v1.7h-.41v-3h.39l.43,1.56,0,.14h0v-1.7h.41v3h-.39Z"/><path class="cls-9" d="M31.88,37.89h.44v3h-.44Z"/><path class="cls-9" d="M33.8,39.86v.41a.8.8,0,0,1-.08.33.51.51,0,0,1-.17.22.63.63,0,0,1-.68,0,.51.51,0,0,1-.17-.22.8.8,0,0,1-.08-.33V38.51a.79.79,0,0,1,.08-.32.48.48,0,0,1,.17-.23.63.63,0,0,1,.68,0,.48.48,0,0,1,.17.23.79.79,0,0,1,.08.32v.41h-.42v-.41a.29.29,0,0,0-.06-.19.15.15,0,0,0-.1,0,.15.15,0,0,0-.14.11s0,.07,0,.11v1.76a.3.3,0,0,0,.07.19.13.13,0,0,0,.09,0,.14.14,0,0,0,.15-.12.31.31,0,0,0,0-.11v-.41Z"/><path class="cls-9" d="M34.06,37.89h.44v3h-.44Z"/><path class="cls-9" d="M34.83,37.89h.44a.75.75,0,0,1,.53.19,1.17,1.17,0,0,1,0,1.42.8.8,0,0,1-.53.19v1.2h-.44Zm.44,1.35c.13,0,.22,0,.27-.09a.61.61,0,0,0,.06-.34.67.67,0,0,0-.06-.36.29.29,0,0,0-.27-.11Z"/><path class="cls-9" d="M36.14,40.89l.46-3h.53l.46,3h-.43l-.08-.61h-.43l-.08.61Zm.75-2v-.08h0v.08l-.13.94H37Z"/><path class="cls-9" d="M37.79,37.89h.44v2.59h.58v.41h-1Z"/><path class="cls-9" d="M26.8,44.16v-3h.35c.41,0,.63.09.75.31A3.13,3.13,0,0,1,28,42.66a3.1,3.1,0,0,1-.13,1.19c-.12.23-.34.31-.75.31Zm.44-.44c.16,0,.24,0,.29-.16a1.82,1.82,0,0,0,0-.32V42.08a2,2,0,0,0,0-.32c-.05-.14-.13-.16-.29-.16Z"/><path class="cls-9" d="M28.32,41.16h1v.46h-.57v.78h.41v.48h-.41v.83h.57v.45h-1Z"/><path class="cls-9" d="M30.2,41.16h1v.46h-.57v.78h.41v.48h-.41v.83h.57v.45h-1Z"/><path class="cls-9" d="M31.46,44.16v-3h.34c.41,0,.63.09.75.31a3.13,3.13,0,0,1,.13,1.19,3.1,3.1,0,0,1-.13,1.19c-.12.23-.34.31-.75.31Zm.44-.44c.15,0,.23,0,.28-.16a1.82,1.82,0,0,0,0-.32V42.08a2,2,0,0,0,0-.32c0-.14-.13-.16-.28-.16Z"/><path class="cls-9" d="M34.14,41.16v2.39a.79.79,0,0,1-.07.32.53.53,0,0,1-.18.22.48.48,0,0,1-.33.1.54.54,0,0,1-.35-.1.6.6,0,0,1-.17-.22.79.79,0,0,1-.07-.32V41.16h.44v2.39a.24.24,0,0,0,.06.18.13.13,0,0,0,.09,0,.14.14,0,0,0,.13-.11.37.37,0,0,0,0-.11V41.16Z"/><path class="cls-9" d="M35.61,43.13v.42a.79.79,0,0,1-.07.32.63.63,0,0,1-.18.22.49.49,0,0,1-.34.1.51.51,0,0,1-.34-.1.6.6,0,0,1-.17-.22.79.79,0,0,1-.07-.32V41.78a.79.79,0,0,1,.07-.32.63.63,0,0,1,.17-.23.57.57,0,0,1,.34-.1.55.55,0,0,1,.34.1.66.66,0,0,1,.18.23.79.79,0,0,1,.07.32v.41H35.2v-.41a.25.25,0,0,0-.07-.19.13.13,0,0,0-.1,0,.15.15,0,0,0-.13.11.36.36,0,0,0,0,.11v1.77a.25.25,0,0,0,.07.18.12.12,0,0,0,.08,0,.14.14,0,0,0,.15-.11.2.2,0,0,0,0-.11v-.42Z"/><path class="cls-9" d="M35.76,44.16l.45-3h.54l.45,3h-.43l-.08-.61h-.42l-.09.61Zm.74-2v-.08h0v.08l-.12.94h.3Z"/><path class="cls-9" d="M38.55,43.13v.42a.79.79,0,0,1-.07.32.63.63,0,0,1-.18.22.49.49,0,0,1-.34.1.51.51,0,0,1-.51-.32.79.79,0,0,1-.08-.32V41.78a.79.79,0,0,1,.08-.32.53.53,0,0,1,.17-.23.57.57,0,0,1,.34-.1.55.55,0,0,1,.34.1.66.66,0,0,1,.18.23.79.79,0,0,1,.07.32v.41h-.41v-.41a.25.25,0,0,0-.07-.19.13.13,0,0,0-.1,0c-.08,0-.11.06-.13.11a.2.2,0,0,0,0,.11v1.77a.24.24,0,0,0,.06.18.15.15,0,0,0,.09,0,.14.14,0,0,0,.15-.11.36.36,0,0,0,0-.11v-.42Z"/><path class="cls-9" d="M38.81,41.16h.45v3h-.45Z"/><path class="cls-9" d="M40.73,43.55a.79.79,0,0,1-.08.32.51.51,0,0,1-.17.22.63.63,0,0,1-.68,0,.51.51,0,0,1-.17-.22.79.79,0,0,1-.08-.32V41.78a.79.79,0,0,1,.08-.32.53.53,0,0,1,.17-.23.63.63,0,0,1,.68,0,.53.53,0,0,1,.17.23.79.79,0,0,1,.08.32Zm-.1-3-.33.37H40l.21-.37Zm-.34,1.25a.29.29,0,0,0-.06-.19.12.12,0,0,0-.09,0c-.08,0-.11.06-.13.11a.36.36,0,0,0,0,.11v1.77a.21.21,0,0,0,.07.18.1.1,0,0,0,.08,0c.08,0,.11-.05.13-.11a.36.36,0,0,0,0-.11Z"/><path class="cls-9" d="M41.49,42.6l0-.14h0v1.7H41v-3h.39l.43,1.57,0,.13h0v-1.7h.4v3h-.39Z"/></svg>